<svg width="13" height="13" viewBox="0 0 13 13" fill="none" xmlns="http://www.w3.org/2000/svg">
<path d="M1.08333 5.77777H0.361111C0.161778 5.77777 0 5.93955 0 6.13888C0 6.33822 0.161778 6.49999 0.361111 6.49999H1.08333C1.28267 6.49999 1.44444 6.33822 1.44444 6.13888C1.44444 5.93955 1.28267 5.77777 1.08333 5.77777Z" fill="black"/>
<path d="M1.08333 5.77777H0.361111C0.161778 5.77777 0 5.93955 0 6.13888C0 6.33822 0.161778 6.49999 0.361111 6.49999H1.08333C1.28267 6.49999 1.44444 6.33822 1.44444 6.13888C1.44444 5.93955 1.28267 5.77777 1.08333 5.77777Z" fill="black"/>
<path d="M1.08333 8.66669H0.361111C0.161778 8.66669 0 8.82846 0 9.0278C0 9.22713 0.161778 9.38891 0.361111 9.38891H1.08333C1.28267 9.38891 1.44444 9.22713 1.44444 9.0278C1.44444 8.82846 1.28267 8.66669 1.08333 8.66669Z" fill="black"/>
<path d="M1.08333 8.66669H0.361111C0.161778 8.66669 0 8.82846 0 9.0278C0 9.22713 0.161778 9.38891 0.361111 9.38891H1.08333C1.28267 9.38891 1.44444 9.22713 1.44444 9.0278C1.44444 8.82846 1.28267 8.66669 1.08333 8.66669Z" fill="black"/>
<path d="M11.6553 4.02206L12.1724 3.50494C12.3132 3.36411 12.3132 3.13517 12.1724 2.99433C12.0316 2.8535 11.8026 2.8535 11.6618 2.99433L11.1447 3.51144C10.2766 2.75239 9.1658 2.26633 7.94453 2.18472V0.722222H9.02786C9.22719 0.722222 9.38897 0.560444 9.38897 0.361111C9.38897 0.161778 9.22719 0 9.02786 0H6.13897C5.93964 0 5.77786 0.161778 5.77786 0.361111C5.77786 0.560444 5.93964 0.722222 6.13897 0.722222H7.2223V2.18472C4.40419 2.37178 2.16675 4.71828 2.16675 7.58333C2.16675 10.5704 4.5963 13 7.58341 13C10.5705 13 13.0001 10.5704 13.0001 7.58333C13.0001 6.21978 12.4895 4.97611 11.6553 4.02206ZM7.58341 12.2778C4.99497 12.2778 2.88897 10.1718 2.88897 7.58333C2.88897 4.99489 4.99497 2.88889 7.58341 2.88889C10.1719 2.88889 12.2779 4.99489 12.2779 7.58333C12.2779 10.1718 10.1719 12.2778 7.58341 12.2778Z" fill="black"/>
<path d="M11.6553 4.02206L12.1724 3.50494C12.3132 3.36411 12.3132 3.13517 12.1724 2.99433C12.0316 2.8535 11.8026 2.8535 11.6618 2.99433L11.1447 3.51144C10.2766 2.75239 9.1658 2.26633 7.94453 2.18472V0.722222H9.02786C9.22719 0.722222 9.38897 0.560444 9.38897 0.361111C9.38897 0.161778 9.22719 0 9.02786 0H6.13897C5.93964 0 5.77786 0.161778 5.77786 0.361111C5.77786 0.560444 5.93964 0.722222 6.13897 0.722222H7.2223V2.18472C4.40419 2.37178 2.16675 4.71828 2.16675 7.58333C2.16675 10.5704 4.5963 13 7.58341 13C10.5705 13 13.0001 10.5704 13.0001 7.58333C13.0001 6.21978 12.4895 4.97611 11.6553 4.02206ZM7.58341 12.2778C4.99497 12.2778 2.88897 10.1718 2.88897 7.58333C2.88897 4.99489 4.99497 2.88889 7.58341 2.88889C10.1719 2.88889 12.2779 4.99489 12.2779 7.58333C12.2779 10.1718 10.1719 12.2778 7.58341 12.2778Z" fill="black"/>
<path d="M7.58328 4.33331C7.38395 4.33331 7.22217 4.49509 7.22217 4.69442V7.58331C7.22217 7.78265 7.38395 7.94442 7.58328 7.94442C7.78261 7.94442 7.94439 7.78265 7.94439 7.58331V4.69442C7.94439 4.49509 7.78261 4.33331 7.58328 4.33331Z" fill="black"/>
<path d="M7.58328 4.33331C7.38395 4.33331 7.22217 4.49509 7.22217 4.69442V7.58331C7.22217 7.78265 7.38395 7.94442 7.58328 7.94442C7.78261 7.94442 7.94439 7.78265 7.94439 7.58331V4.69442C7.94439 4.49509 7.78261 4.33331 7.58328 4.33331Z" fill="black"/>
</svg>
