<svg width="28" height="33" viewBox="0 0 28 33" fill="none" xmlns="http://www.w3.org/2000/svg">
<path d="M10.4989 0C9.22596 0 8.16477 1.0612 8.16477 2.33409V4.66819C5.83219 4.66819 3.49962 4.66819 1.16705 4.66819C0.52251 4.66819 0 5.1907 0 5.83524C0 6.47977 0.52251 7.00228 1.16705 7.00228H2.32953V29.1762C2.32953 31.0956 3.91123 32.6773 5.83067 32.6773H22.1693C24.0888 32.6773 25.6705 31.0956 25.6705 29.1762V7.00228H26.833C27.4775 7.00228 28 6.47977 28 5.83524C28 5.1907 27.4775 4.66819 26.833 4.66819C24.5004 4.66819 22.1678 4.66819 19.8352 4.66819V2.33409C19.8352 1.0612 18.774 0 17.5011 0H10.4989ZM10.4989 2.33409H17.5011V4.66819H10.4989V2.33409ZM4.66362 7.00228C10.8879 7.00228 17.1121 7.00228 23.3364 7.00228V29.1762C23.3364 29.8429 22.8361 30.3432 22.1693 30.3432H5.83067C5.16394 30.3432 4.66362 29.8429 4.66362 29.1762V7.00228Z" fill="white"/>
<path d="M10.4991 12.8374C10.1896 12.8374 9.89272 12.9604 9.67385 13.1792C9.45499 13.3981 9.33203 13.6949 9.33203 14.0044V23.3408C9.33203 23.6503 9.45499 23.9472 9.67385 24.1661C9.89272 24.3849 10.1896 24.5079 10.4991 24.5079C10.8086 24.5079 11.1054 24.3849 11.3243 24.1661C11.5432 23.9472 11.6661 23.6503 11.6661 23.3408V14.0044C11.6661 13.6949 11.5432 13.3981 11.3243 13.1792C11.1054 12.9604 10.8086 12.8374 10.4991 12.8374Z" fill="white"/>
<path d="M17.5015 12.8374C17.192 12.8374 16.8952 12.9604 16.6763 13.1792C16.4574 13.3981 16.3345 13.6949 16.3345 14.0044V23.3408C16.3345 23.6503 16.4574 23.9472 16.6763 24.1661C16.8952 24.3849 17.192 24.5079 17.5015 24.5079C17.811 24.5079 18.1079 24.3849 18.3267 24.1661C18.5456 23.9472 18.6686 23.6503 18.6686 23.3408V14.0044C18.6686 13.6949 18.5456 13.3981 18.3267 13.1792C18.1079 12.9604 17.811 12.8374 17.5015 12.8374Z" fill="white"/>
</svg>
